<?xml version="1.0" standalone="no"?>
<!DOCTYPE svg PUBLIC "-//W3C//DTD SVG 20010904//EN"
 "http://www.w3.org/TR/2001/REC-SVG-20010904/DTD/svg10.dtd">
<svg version="1.0" xmlns="http://www.w3.org/2000/svg"
 width="48.000000pt" height="48.000000pt" viewBox="0 0 48.000000 48.000000"
 preserveAspectRatio="xMidYMid meet">

<g transform="translate(0.000000,48.000000) scale(0.100000,-0.100000)"
fill="#000000" stroke="none">
<path d="M180 471 c-112 -36 -174 -119 -174 -231 0 -95 44 -169 126 -211 65
-33 68 -30 68 66 l0 85 -30 0 c-28 0 -30 2 -30 40 0 38 2 40 30 40 29 0 30 2
30 43 1 66 36 97 109 97 40 0 41 -1 41 -34 0 -32 -3 -35 -32 -38 -29 -3 -33
-7 -36 -35 -3 -32 -2 -33 34 -33 36 0 36 -1 30 -31 -3 -17 -6 -35 -6 -40 0 -5
-13 -9 -30 -9 l-30 0 0 -85 c0 -96 3 -99 68 -66 82 42 126 116 126 211 0 95
-44 169 -128 212 -43 22 -128 32 -166 19z"/>
</g>
</svg>
